<svg width="334" height="64" viewBox="0 0 334 64" fill="none" xmlns="http://www.w3.org/2000/svg">
<g clip-path="url(#clip0_636_172)">
<path d="M85.5653 40.976H98.3333V47.9973H78.2693V16.08H98.1066V23.1013H85.5653V28.392H96.9653V35.3227H85.5653V40.976Z" fill="#2D9764"/>
<path d="M117.667 25.2H125.237L116.8 48H109.048L100.611 25.2H108.181L112.925 39.656L117.667 25.2Z" fill="#2D9764"/>
<path d="M134.768 39.336C135.544 41.48 137.368 42.528 140.24 42.528C142.109 42.528 143.568 41.936 144.619 40.7946L150.091 43.9413C147.856 47.088 144.528 48.6373 140.149 48.6373C136.317 48.6373 133.264 47.496 130.939 45.216C128.659 42.936 127.517 40.064 127.517 36.5973C127.517 33.1306 128.659 30.304 130.891 28.024C133.171 25.6986 136.091 24.5573 139.645 24.5573C142.973 24.5573 145.709 25.6986 147.899 28.024C150.133 30.304 151.227 33.176 151.227 36.5973C151.227 37.5546 151.136 38.4666 150.952 39.3333H134.763L134.768 39.336ZM144.435 34.2293C143.749 31.8133 142.155 30.6266 139.6 30.6266C137.045 30.6266 135.315 31.8133 134.629 34.2293H144.435Z" fill="#2D9764"/>
<path d="M162.856 29.2587C163.723 26.3414 166.595 24.744 169.696 24.744V32.496C168.008 32.2214 166.459 32.496 165 33.3627C163.587 34.184 162.856 35.6427 162.856 37.696V48.0027H156.016V25.2H162.856V29.2587Z" fill="#2D9764"/>
<path d="M177.357 43.896C174.211 40.704 172.661 36.736 172.661 32.04C172.661 27.344 174.211 23.376 177.357 20.2293C180.504 17.0373 184.472 15.44 189.259 15.44C194.96 15.44 200.157 18.2667 202.939 22.8267L196.645 26.4747C195.232 23.9653 192.496 22.552 189.259 22.552C186.432 22.552 184.152 23.4187 182.464 25.152C180.776 26.8853 179.955 29.1653 179.955 32.0373C179.955 34.9093 180.776 37.1893 182.464 38.9227C184.152 40.656 186.432 41.5227 189.259 41.5227C192.496 41.5227 195.323 40.0187 196.645 37.6L202.939 41.248C200.203 45.808 195.051 48.6347 189.259 48.6347C184.469 48.6347 180.504 47.0373 177.357 43.8907V43.896Z" fill="#2D9764"/>
<path d="M226.925 27.0694C228.568 28.7574 229.387 31.0374 229.387 34V48H222.547V35.0027C222.547 32.312 220.904 30.8534 218.579 30.8534C215.979 30.8534 214.339 32.4507 214.339 35.5494V47.9974H207.499V16.08H214.339V27.344C215.707 25.4747 217.896 24.5627 220.859 24.5627C223.275 24.5627 225.328 25.384 226.923 27.072L226.925 27.0694Z" fill="#2D9764"/>
<path d="M251.547 25.2H258.387V48H251.547V45.856C249.949 47.7253 247.669 48.6373 244.752 48.6373C241.835 48.6373 239.189 47.496 237.045 45.1706C234.901 42.8453 233.853 39.9733 233.853 36.5973C233.853 33.2213 234.901 30.3946 237.045 28.0693C239.189 25.744 241.741 24.5573 244.752 24.5573C247.763 24.5573 249.952 25.4693 251.547 27.3386V25.1946V25.2ZM246.12 42.1626C247.717 42.1626 249.037 41.6613 250.043 40.6586C251.045 39.656 251.547 38.288 251.547 36.6C251.547 34.912 251.045 33.544 250.043 32.5413C249.04 31.5386 247.717 31.0373 246.12 31.0373C244.523 31.0373 243.203 31.5386 242.197 32.5413C241.195 33.544 240.693 34.912 240.693 36.6C240.693 38.288 241.195 39.656 242.197 40.6586C243.2 41.6613 244.523 42.1626 246.12 42.1626Z" fill="#2D9764"/>
<path d="M271.155 29.2587C272.021 26.3414 274.893 24.744 277.995 24.744V32.496C276.307 32.2214 274.757 32.496 273.299 33.3627C271.885 34.184 271.155 35.6427 271.155 37.696V48.0027H264.315V25.2H271.155V29.2587Z" fill="#2D9764"/>
<path d="M298.835 25.2H305.493V46.8613C305.493 50.464 304.307 53.1547 301.981 54.9787C299.656 56.848 296.781 57.76 293.453 57.76C288.301 57.76 284.699 55.936 282.645 52.2427L288.483 48.8693C289.531 50.784 291.264 51.7413 293.683 51.7413C296.92 51.7413 298.835 50.008 298.835 46.8613V44.7627C297.237 46.7227 295.051 47.728 292.176 47.728C288.984 47.728 286.293 46.5893 284.149 44.3547C282.005 42.0747 280.957 39.3387 280.957 36.1467C280.957 32.9547 282.005 30.2187 284.149 27.984C286.293 25.704 288.984 24.5627 292.176 24.5627C295.048 24.5627 297.237 25.5654 298.835 27.528V25.2027V25.2ZM293.317 41.4347C294.915 41.4347 296.235 40.9333 297.285 39.976C298.333 39.0187 298.835 37.7413 298.835 36.1467C298.835 34.552 298.333 33.2747 297.285 32.3147C296.237 31.3573 294.915 30.856 293.317 30.856C291.72 30.856 290.4 31.3573 289.349 32.3147C288.301 33.272 287.8 34.5493 287.8 36.1467C287.8 37.744 288.301 39.0187 289.349 39.976C290.397 40.9333 291.72 41.4347 293.317 41.4347Z" fill="#2D9764"/>
<path d="M317.528 39.336C318.304 41.48 320.128 42.528 323 42.528C324.869 42.528 326.328 41.936 327.379 40.7946L332.851 43.9413C330.616 47.088 327.288 48.6373 322.909 48.6373C319.077 48.6373 316.024 47.496 313.699 45.216C311.419 42.936 310.277 40.064 310.277 36.5973C310.277 33.1306 311.419 30.304 313.651 28.024C315.931 25.6986 318.851 24.5573 322.405 24.5573C325.733 24.5573 328.469 25.6986 330.659 28.024C332.893 30.304 333.987 33.176 333.987 36.5973C333.987 37.5546 333.896 38.4666 333.712 39.3333H317.523L317.528 39.336ZM327.195 34.2293C326.509 31.8133 324.915 30.6266 322.36 30.6266C319.805 30.6266 318.075 31.8133 317.389 34.2293H327.195Z" fill="#2D9764"/>
<path fill-rule="evenodd" clip-rule="evenodd" d="M38.578 44.8L44.088 41.6L49.6006 38.4L55.1106 35.2V48L49.6006 51.2L44.088 54.4L38.578 57.6L33.068 60.8L27.558 64H27.5553L22.0453 60.8L16.5353 57.6L11.0227 54.4L5.51266 51.2H5.51L0 48V16L5.51 12.8H5.51266L11.0227 9.6L16.5327 6.4H16.5353L22.0453 3.2L27.5553 0H27.558L33.068 3.2L38.578 6.4L33.068 9.6L27.558 12.8L22.0453 16L16.5353 19.2L11.0227 22.4V35.2L16.5353 32L22.0453 28.8L27.558 25.6L33.068 22.4L38.578 19.2L44.088 22.4V28.8L38.578 32L33.068 35.2L27.558 38.4L22.0453 41.6L16.5353 44.8L22.0453 48L27.558 51.2L33.068 48L38.578 44.8ZM60.2309 6.17333L65.7436 9.37333L66.1333 9.6V28.8L63.5056 30.328L55.1107 35.2V16L54.2834 15.52L49.6007 12.8L44.5255 9.85333L44.088 9.6L43.2607 9.12L38.578 6.4L44.5388 2.93867L49.6007 0L54.7209 2.97333L55.1107 3.2L60.2309 6.17333Z" fill="url(#paint0_linear_636_172)"/>
</g>
<defs>
<linearGradient id="paint0_linear_636_172" x1="0.0611101" y1="47.7333" x2="66.2699" y2="10.057" gradientUnits="userSpaceOnUse">
<stop stop-color="#2D9764"/>
<stop offset="1" stop-color="#F29913"/>
</linearGradient>
<clipPath id="clip0_636_172">
<rect width="333.992" height="64" fill="white"/>
</clipPath>
</defs>
</svg>
